# xmcd
# Track frame offsets:
# 150
# 19069
# 36572
# 56260
# 71877
# 90336
# 109836
# 125870
# 149338
# 165035
# 182294
# 196962
# 212215
# 226699
# 246069
# 260990
# 279984
#
# Disc length: 3974 seconds
# Revision: 0
# Processed by: cddbd v1.5.2PL0 Copyright (c) Steve Scherf et al.
# Submitted via: VisiTrax 2.10.3.257 - For more info visit www.synapsa.com
#
DISCID=ef0f8411
DTITLE=Various Artist - TexMix - 2008 Spring
DYEAR=2008
DGENRE=Country
TTITLE0=Luke Olson - Searching for a Heart
TTITLE1=Ryan Bingham - Bread and Water
TTITLE2=Texas Renegade - Bar Ditch
TTITLE3=Joel Sprayberry Band - Peter Pan
TTITLE4=J. R. Castillo - Party Kind of Guy
TTITLE5=Jim Stricklan - Song of the Big Bend
TTITLE6=Lucky Tomblin Band, The - Honky Tonk Song
TTITLE7=Kevin Deal - What's Your Problem, Man?
TTITLE8=Caroline Herring - Stone Cold World
TTITLE9=Cyntia Miller - Winners
TTITLE10=Sunny Sweeney - Next Big Nothing
TTITLE11=Sleeperstar - Texas Rain
TTITLE12=Jerry Diaz and Hanna's Reef - Livin' Well
TTITLE13=Willie Stradlin - Ain't That Right
TTITLE14=Eleven Hundred Springs - Everytime I Get Close to You
TTITLE15=Miles from Nowhere - When I Get Mean
TTITLE16=Trent Willmon - Cold Beer and a Fishin' Pole
EXTD=Submitted by Larry@LosSenderosStudio.com
EXTT0=
EXTT1=
EXTT2=
EXTT3=
EXTT4=
EXTT5=
EXTT6=
EXTT7=
EXTT8=
EXTT9=
EXTT10=
EXTT11=
EXTT12=
EXTT13=
EXTT14=
EXTT15=
EXTT16=
PLAYORDER=
